# xmcd CD database file
#
# Track frame offsets:
#	150
#	20288
#	40585
#	61153
#	83700
#	108863
#	132033
#	154625
#	176830
#	195588
#	217218
#	238003
#	264300
#	283605
#	304273
#
# Disc length: 4313 seconds
#
# Revision: 6
# Processed by: cddbd v1.5.1PL0 Copyright (c) Steve Scherf et al.
# Submitted via: CDex 1.51
#
DISCID=c510d70f
DTITLE=林原めぐみ - VINTAGE S
DYEAR=2000
DGENRE=Pop
TTITLE0=Give a reason
TTITLE1=〜infinity〜∞
TTITLE2=Going History
TTITLE3=Until Strawberry Sherbet
TTITLE4=MIDNIGHT BLUE
TTITLE5=Touch Yourself
TTITLE6=raging waves
TTITLE7=〜それから〜
TTITLE8=Succesful Mission
TTITLE9=Fine colorday
TTITLE10=Lively Motion
TTITLE11=Proof of Myself
TTITLE12=A HOUSE CAT
TTITLE13=おやすみなさい 明日はおはよう
TTITLE14=虹色のSneaker
EXTD=YEAR: 2000
EXTT0=
EXTT1=
EXTT2=
EXTT3=
EXTT4=
EXTT5=
EXTT6=
EXTT7=
EXTT8=
EXTT9=
EXTT10=
EXTT11=
EXTT12=
EXTT13=
EXTT14=
PLAYORDER=
